<svg width="146" height="32" viewBox="0 0 146 32" fill="none" xmlns="http://www.w3.org/2000/svg">
<g clip-path="url(#clip0_6708_4356)">
<rect width="32" height="32" rx="7.88177" fill="#91BA00"/>
<path d="M23.791 16.7802C24.0789 16.4923 24.5719 16.6964 24.5723 17.1034V24.2284C24.5723 24.7333 24.1622 25.1434 23.6572 25.1434H16.5322C16.1252 25.1431 15.9211 24.6501 16.209 24.3622L23.791 16.7802ZM14.5156 6.90222C15.018 6.85241 15.4286 7.26652 15.4287 7.77136V24.2284C15.4287 24.7333 15.0181 25.1474 14.5156 25.0975C9.89502 24.6392 6.28613 20.7411 6.28613 15.9999C6.28628 11.2588 9.89508 7.3605 14.5156 6.90222ZM23.6572 6.8573C24.1621 6.8573 24.5721 7.26652 24.5723 7.77136V14.8964C24.5723 15.3036 24.079 15.5076 23.791 15.2196L16.209 7.63757C15.9215 7.34965 16.1253 6.85763 16.5322 6.8573H23.6572Z" fill="#0D0D12"/>
</g>
<path d="M40.4253 13.5186C40.7091 12.7743 41.1015 12.1426 41.601 11.625C42.1018 11.1061 42.6945 10.7054 43.3804 10.423C44.0664 10.1405 44.8037 10 45.5912 10C46.6514 10 47.6197 10.2574 48.4976 10.7722C49.3756 11.287 50.0364 11.9896 50.483 12.88L47.9481 14.6191C47.7143 14.0097 47.3888 13.5395 46.97 13.2097C46.5512 12.88 46.0921 12.7144 45.5926 12.7144C44.9457 12.7144 44.3808 12.9927 43.8966 13.5506C43.4124 14.1085 43.1717 14.9266 43.1717 16.0035C43.1717 17.0803 43.4138 17.8901 43.8966 18.448C44.3808 19.0059 44.9457 19.2842 45.5926 19.2842C46.0921 19.2842 46.5512 19.1172 46.97 18.7861C47.3888 18.4536 47.7143 17.9819 47.9481 17.3725L50.5164 19.0463C50.0378 19.9395 49.3505 20.6546 48.4545 21.193C47.5585 21.7315 46.593 22 45.5606 22C44.7731 22 44.0357 21.8581 43.3498 21.5757C42.6639 21.2932 42.0768 20.8953 41.5871 20.3847C41.0973 19.8741 40.7105 19.2438 40.4267 18.4967C40.1429 17.7496 40.0009 16.9921 40.001 16.0049C40.0011 15.0199 40.281 13.8972 40.4253 13.5186Z" fill="#0D0D12"/>
<path fill-rule="evenodd" clip-rule="evenodd" d="M51.9995 10.1875H56.5185C58.0545 10.1875 59.244 10.5186 60.0872 11.1823C60.9303 11.8459 61.3519 12.7558 61.3519 13.912C61.3519 14.6021 61.1724 15.2365 60.8134 15.8153C60.4545 16.3941 59.9508 16.8783 59.3039 17.2706L61.9766 21.8758H58.4691L56.5143 18.3545L55.0604 18.8358V21.8758H51.9995V10.1875ZM55.0604 16.255L56.6006 15.7332C57.2253 15.5218 57.6691 15.2713 57.9293 14.9833C58.1894 14.6953 58.3202 14.3851 58.3202 14.0539C58.3202 13.7228 58.1853 13.4487 57.9167 13.2025C57.6482 12.9562 57.2253 12.831 56.6493 12.831H55.059V16.255H55.0604Z" fill="#0D0D12"/>
<path d="M84.0009 10.1875V12.831H87.6183V21.8745H90.8183V12.831H94.5748V10.1875H84.0009Z" fill="#0D0D12"/>
<path d="M106.501 21.8745V10.1875H109.512L114.153 16.984V10.1875H117.075V21.8745H114.097L109.423 15.0445V21.8745H106.501Z" fill="#0D0D12"/>
<path d="M63.437 10.1875V21.8745H72.3413V19.3701H66.637V17.2832H71.5066V14.9179H66.637V12.831H72.3413V10.1875H63.437Z" fill="#0D0D12"/>
<path d="M137.722 10.1875H135.031L132.991 17.6365L131.653 10.1875H128.564L130.957 21.8745H134.679L136.376 15.3312L138.072 21.8745H141.794L144.189 10.1875H141.1L139.761 17.6365L137.722 10.1875Z" fill="#0D0D12"/>
<path fill-rule="evenodd" clip-rule="evenodd" d="M84.4714 21.8745H81.391L80.9834 19.6484H76.9876L76.5799 21.8745H73.501L75.894 10.1875H82.0783L84.4714 21.8745ZM78.2077 12.9701L77.4175 17.2832H80.5549L79.7646 12.9701H78.2077Z" fill="#0D0D12"/>
<path d="M95.8134 21.8745V10.1875H104.718V12.831H99.0134V14.9179H103.883V17.2832H99.0134V19.3701H104.718V21.8745H95.8134Z" fill="#0D0D12"/>
<path d="M118.688 10.1875V21.8745H127.593V19.3701H121.749V17.2832H126.619V14.9179H121.749V12.831H127.593V10.1875H118.688Z" fill="#0D0D12"/>
<defs>
<clipPath id="clip0_6708_4356">
<rect width="32" height="32" fill="white"/>
</clipPath>
</defs>
</svg>
